<mxfile host="app.diagrams.net" modified="2024-04-05T17:29:55.946Z" agent="Mozilla/5.0 (X11; Linux x86_64) AppleWebKit/537.36 (KHTML, like Gecko) Chrome/122.0.0.0 Safari/537.36" etag="W1OpCQbhGFKHdK0olneg" version="24.2.2" type="device">
  <diagram name="Page-1" id="OMwTdxaDqCLVE1jIK5j0">
    <mxGraphModel dx="2261" dy="879" grid="1" gridSize="10" guides="1" tooltips="1" connect="1" arrows="1" fold="1" page="1" pageScale="1" pageWidth="827" pageHeight="1169" math="0" shadow="0">
      <root>
        <mxCell id="0" />
        <mxCell id="1" parent="0" />
        <mxCell id="h5ChScmSq1vcfv4NcIah-1" value="Frontend" style="whiteSpace=wrap;html=1;aspect=fixed;" vertex="1" parent="1">
          <mxGeometry x="-610" y="440" width="80" height="80" as="geometry" />
        </mxCell>
        <mxCell id="h5ChScmSq1vcfv4NcIah-2" value="Backend" style="whiteSpace=wrap;html=1;aspect=fixed;" vertex="1" parent="1">
          <mxGeometry x="-630" y="110" width="80" height="80" as="geometry" />
        </mxCell>
        <mxCell id="h5ChScmSq1vcfv4NcIah-4" value="" style="rounded=0;whiteSpace=wrap;html=1;" vertex="1" parent="1">
          <mxGeometry x="-540" y="200" width="120" height="60" as="geometry" />
        </mxCell>
      </root>
    </mxGraphModel>
  </diagram>
</mxfile>
